<?xml version="1.0" standalone="no"?>
<!DOCTYPE svg PUBLIC "-//W3C//DTD SVG 20010904//EN"
 "http://www.w3.org/TR/2001/REC-SVG-20010904/DTD/svg10.dtd">
<svg version="1.0" xmlns="http://www.w3.org/2000/svg"
 width="64.000000pt" height="64.000000pt" viewBox="0 0 64.000000 64.000000"
 preserveAspectRatio="xMidYMid meet">

<g transform="translate(0.000000,64.000000) scale(0.100000,-0.100000)"
fill="#000000" stroke="none">
<path d="M506 612 c-17 -16 -3 -41 29 -52 73 -24 76 -118 5 -155 -23 -12 -72
-15 -245 -15 -188 0 -216 -2 -222 -16 -3 -9 0 -20 8 -25 20 -12 416 -11 461 1
96 27 128 160 54 229 -24 22 -80 43 -90 33z"/>
<path d="M186 465 c-10 -26 30 -35 161 -35 132 0 160 7 150 34 -9 23 -302 24
-311 1z"/>
<path d="M11 291 c-8 -5 -11 -16 -8 -25 6 -14 36 -16 257 -16 266 0 296 -5
320 -49 31 -59 -5 -115 -82 -127 -32 -6 -38 -10 -38 -32 0 -24 2 -24 47 -18
78 10 121 51 129 123 6 46 -18 97 -59 127 -27 20 -43 21 -290 24 -147 1 -268
-2 -276 -7z"/>
<path d="M131 201 c-8 -5 -11 -16 -8 -25 5 -12 27 -16 113 -18 97 -3 108 -5
121 -25 14 -20 13 -24 -11 -48 -14 -14 -26 -34 -26 -45 0 -17 3 -18 30 -8 84
29 78 144 -9 168 -44 12 -191 13 -210 1z"/>
</g>
</svg>
